<?xml version="1.0" encoding="utf-8" standalone="no"?>
<!DOCTYPE svg PUBLIC "-//W3C//DTD SVG 1.1//EN"
  "http://www.w3.org/Graphics/SVG/1.1/DTD/svg11.dtd">
<svg xmlns:xlink="http://www.w3.org/1999/xlink" width="576pt" height="144pt" viewBox="0 0 576 144" xmlns="http://www.w3.org/2000/svg" version="1.1">
 <metadata>
  <rdf:RDF xmlns:dc="http://purl.org/dc/elements/1.1/" xmlns:cc="http://creativecommons.org/ns#" xmlns:rdf="http://www.w3.org/1999/02/22-rdf-syntax-ns#">
   <cc:Work>
    <dc:type rdf:resource="http://purl.org/dc/dcmitype/StillImage"/>
    <dc:date>2026-09-29T22:33:58.250595</dc:date>
    <dc:format>image/svg+xml</dc:format>
    <dc:creator>
     <cc:Agent>
      <dc:title>Matplotlib v3.11.2, https://matplotlib.org/</dc:title>
     </cc:Agent>
    </dc:creator>
   </cc:Work>
  </rdf:RDF>
 </metadata>
 <defs>
  <style type="text/css">*{stroke-linejoin: round; stroke-linecap: butt}</style>
 </defs>
 <g id="figure_1">
  <g id="patch_1">
   <path d="M 0 144 
L 576 144 
L 576 0 
L 0 0 
L 0 144 
z
" style="fill: none"/>
  </g>
  <g id="axes_1">
   <g id="patch_2">
    <path d="M 256.32 87.84 
L 319.68 87.84 
Q 334.08 87.84 334.08 73.44 
L 334.08 41.76 
Q 334.08 27.36 319.68 27.36 
L 256.32 27.36 
Q 241.92 27.36 241.92 41.76 
L 241.92 73.44 
Q 241.92 87.84 256.32 87.84 
z
" clip-path="url(#pdb0e91f0bd)" style="fill: #ffffff; stroke: #000000; stroke-width: 1.2; stroke-linejoin: miter"/>
   </g>
   <g id="text_1">
    <!-- $\mathcal{S}$ -->
    <g transform="translate(281.29 63.314844) scale(0.22 -0.22)">
     <defs>
      <path id="Cmsy10-3f" d="M 116 794 
Q 116 1163 397 1453 
Q 519 1566 678 1644 
Q 838 1722 984 1722 
L 1025 1722 
Q 1069 1700 1069 1672 
Q 1069 1638 1047 1608 
Q 1025 1578 1003 1559 
Q 981 1541 934 1503 
Q 894 1472 845 1445 
Q 797 1419 778 1401 
Q 759 1384 738 1338 
Q 684 1206 684 1069 
Q 684 816 867 627 
Q 1050 438 1320 338 
Q 1591 238 1844 238 
Q 2169 238 2455 338 
Q 2741 438 2922 647 
Q 3103 856 3103 1184 
Q 3103 1384 3008 1543 
Q 2913 1703 2750 1828 
Q 2588 1953 2431 2033 
Q 2275 2113 2059 2209 
Q 1688 2381 1455 2598 
Q 1222 2816 1222 3128 
Q 1222 3513 1525 3831 
Q 1828 4150 2272 4331 
Q 2716 4513 3072 4513 
L 3109 4513 
Q 3325 4513 3558 4455 
Q 3791 4397 3950 4259 
Q 4109 4122 4109 3897 
Q 4109 3628 3975 3494 
Q 3750 3325 3578 3309 
L 3541 3309 
Q 3494 3331 3494 3366 
Q 3506 3422 3514 3447 
Q 3522 3472 3531 3522 
Q 3541 3572 3541 3616 
Q 3541 3897 3258 4015 
Q 2975 4134 2644 4134 
Q 2278 4134 2034 3943 
Q 1791 3753 1791 3413 
Q 1791 2931 2541 2584 
Q 2853 2447 3093 2308 
Q 3334 2169 3504 1959 
Q 3675 1750 3675 1466 
Q 3675 1003 3306 634 
Q 2938 266 2400 62 
Q 1863 -141 1416 -141 
L 1381 -141 
Q 1113 -141 813 -28 
Q 513 84 314 296 
Q 116 509 116 794 
z
" transform="scale(0.015625)"/>
     </defs>
     <use xlink:href="#Cmsy10-3f" transform="translate(0 0.484375)"/>
    </g>
   </g>
   <g id="patch_3">
    <path d="M 161.28 57.6 
Q 195.84 57.6 228.784451 57.6 
" style="fill: none; stroke: #000000; stroke-width: 1.2; stroke-linecap: round"/>
    <path d="M 220.784451 54.4 
L 228.784451 57.6 
L 220.784451 60.8 
" style="fill: none; stroke: #000000; stroke-width: 1.2; stroke-linecap: round"/>
   </g>
   <g id="patch_4">
    <path d="M 345.6 57.6 
Q 380.16 57.6 413.104451 57.6 
" style="fill: none; stroke: #000000; stroke-width: 1.2; stroke-linecap: round"/>
    <path d="M 405.104451 54.4 
L 413.104451 57.6 
L 405.104451 60.8 
" style="fill: none; stroke: #000000; stroke-width: 1.2; stroke-linecap: round"/>
   </g>
   <g id="text_2">
    <!-- $\cos(\omega t)$ -->
    <g transform="translate(61.6 119.278125) scale(0.16 -0.16)">
     <defs>
      <path id="Cmr10-7b" d="M 1594 -72 
Q 1206 -72 890 129 
Q 575 331 394 667 
Q 213 1003 213 1381 
Q 213 1759 392 2106 
Q 572 2453 889 2661 
Q 1206 2869 1594 2869 
Q 1969 2869 2276 2722 
Q 2584 2575 2584 2241 
Q 2584 2116 2495 2023 
Q 2406 1931 2278 1931 
Q 2150 1931 2061 2023 
Q 1972 2116 1972 2241 
Q 1972 2353 2044 2436 
Q 2116 2519 2222 2541 
Q 2000 2681 1600 2681 
Q 1294 2681 1106 2478 
Q 919 2275 844 1975 
Q 769 1675 769 1381 
Q 769 1072 861 783 
Q 953 494 1158 305 
Q 1363 116 1672 116 
Q 1975 116 2187 302 
Q 2400 488 2478 788 
Q 2478 825 2528 825 
L 2606 825 
Q 2625 825 2640 808 
Q 2656 791 2656 769 
L 2656 750 
Q 2559 372 2271 150 
Q 1984 -72 1594 -72 
z
" transform="scale(0.015625)"/>
      <path id="Cmr10-42" d="M 1600 -72 
Q 1216 -72 887 123 
Q 559 319 368 647 
Q 178 975 178 1363 
Q 178 1656 283 1928 
Q 388 2200 583 2414 
Q 778 2628 1037 2748 
Q 1297 2869 1600 2869 
Q 1994 2869 2317 2661 
Q 2641 2453 2828 2104 
Q 3016 1756 3016 1363 
Q 3016 978 2825 648 
Q 2634 319 2307 123 
Q 1981 -72 1600 -72 
z
M 1600 116 
Q 2113 116 2284 487 
Q 2456 859 2456 1434 
Q 2456 1756 2422 1967 
Q 2388 2178 2272 2350 
Q 2200 2456 2089 2536 
Q 1978 2616 1854 2658 
Q 1731 2700 1600 2700 
Q 1400 2700 1220 2609 
Q 1041 2519 922 2350 
Q 803 2169 770 1951 
Q 738 1734 738 1434 
Q 738 1075 800 789 
Q 863 503 1052 309 
Q 1241 116 1600 116 
z
" transform="scale(0.015625)"/>
      <path id="Cmr10-52" d="M 213 -19 
L 213 1025 
Q 213 1075 269 1075 
L 347 1075 
Q 384 1075 397 1025 
Q 575 97 1259 97 
Q 1563 97 1767 234 
Q 1972 372 1972 659 
Q 1972 866 1812 1011 
Q 1653 1156 1434 1209 
L 1006 1294 
Q 791 1341 614 1437 
Q 438 1534 325 1695 
Q 213 1856 213 2069 
Q 213 2350 361 2529 
Q 509 2709 746 2789 
Q 984 2869 1259 2869 
Q 1588 2869 1831 2694 
L 2016 2853 
Q 2016 2869 2047 2869 
L 2094 2869 
Q 2113 2869 2128 2851 
Q 2144 2834 2144 2816 
L 2144 1978 
Q 2144 1919 2094 1919 
L 2016 1919 
Q 1959 1919 1959 1978 
Q 1959 2313 1773 2516 
Q 1588 2719 1253 2719 
Q 966 2719 755 2612 
Q 544 2506 544 2247 
Q 544 2069 695 1955 
Q 847 1841 1050 1791 
L 1484 1709 
Q 1703 1659 1892 1540 
Q 2081 1422 2192 1240 
Q 2303 1059 2303 831 
Q 2303 600 2223 429 
Q 2144 259 2001 146 
Q 1859 34 1665 -19 
Q 1472 -72 1259 -72 
Q 859 -72 575 197 
L 341 -56 
Q 341 -72 306 -72 
L 269 -72 
Q 213 -72 213 -19 
z
" transform="scale(0.015625)"/>
      <path id="Cmr10-77" d="M 1984 -1588 
Q 1628 -1306 1370 -942 
Q 1113 -578 948 -165 
Q 784 247 703 697 
Q 622 1147 622 1600 
Q 622 2059 703 2509 
Q 784 2959 951 3375 
Q 1119 3791 1378 4153 
Q 1638 4516 1984 4788 
Q 1984 4800 2016 4800 
L 2075 4800 
Q 2094 4800 2109 4783 
Q 2125 4766 2125 4744 
Q 2125 4716 2113 4703 
Q 1800 4397 1592 4047 
Q 1384 3697 1257 3301 
Q 1131 2906 1075 2482 
Q 1019 2059 1019 1600 
Q 1019 -434 2106 -1491 
Q 2125 -1509 2125 -1544 
Q 2125 -1559 2108 -1579 
Q 2091 -1600 2075 -1600 
L 2016 -1600 
Q 1984 -1600 1984 -1588 
z
" transform="scale(0.015625)"/>
      <path id="Cmmi10-1d" d="M 775 -72 
Q 413 -72 252 193 
Q 91 459 91 844 
Q 91 1097 136 1339 
Q 181 1581 273 1829 
Q 366 2078 484 2295 
Q 603 2513 750 2719 
Q 778 2759 825 2759 
Q 866 2759 891 2734 
Q 916 2709 916 2675 
Q 916 2641 897 2613 
Q 313 1809 313 1131 
Q 313 838 448 627 
Q 584 416 863 416 
Q 1103 416 1308 556 
Q 1513 697 1663 916 
Q 1663 1028 1702 1265 
Q 1741 1503 1823 1689 
Q 1906 1875 2022 1875 
Q 2169 1875 2169 1703 
Q 2169 1603 2126 1451 
Q 2084 1300 2032 1169 
Q 1981 1038 1906 872 
Q 1981 416 2363 416 
Q 2584 416 2807 544 
Q 3031 672 3203 880 
Q 3375 1088 3473 1328 
Q 3572 1569 3572 1784 
Q 3572 1978 3511 2086 
Q 3450 2194 3350 2312 
Q 3250 2431 3250 2503 
Q 3250 2628 3356 2731 
Q 3463 2834 3584 2834 
Q 3741 2834 3806 2692 
Q 3872 2550 3872 2369 
Q 3872 2075 3755 1628 
Q 3638 1181 3488 884 
Q 3281 481 2970 204 
Q 2659 -72 2272 -72 
Q 2025 -72 1873 76 
Q 1722 225 1678 481 
Q 1500 228 1272 78 
Q 1044 -72 775 -72 
z
" transform="scale(0.015625)"/>
      <path id="Cmmi10-30" d="M 397 519 
Q 397 613 416 697 
L 878 2534 
L 206 2534 
Q 141 2534 141 2619 
Q 166 2759 225 2759 
L 934 2759 
L 1191 3803 
Q 1216 3888 1291 3947 
Q 1366 4006 1459 4006 
Q 1541 4006 1595 3957 
Q 1650 3909 1650 3828 
Q 1650 3809 1648 3798 
Q 1647 3788 1644 3775 
L 1388 2759 
L 2047 2759 
Q 2113 2759 2113 2675 
Q 2109 2659 2100 2621 
Q 2091 2584 2075 2559 
Q 2059 2534 2028 2534 
L 1331 2534 
L 872 684 
Q 825 503 825 372 
Q 825 97 1013 97 
Q 1294 97 1511 361 
Q 1728 625 1844 941 
Q 1869 978 1894 978 
L 1972 978 
Q 1997 978 2012 961 
Q 2028 944 2028 922 
Q 2028 909 2022 903 
Q 1881 516 1612 222 
Q 1344 -72 997 -72 
Q 744 -72 570 93 
Q 397 259 397 519 
z
" transform="scale(0.015625)"/>
      <path id="Cmr10-44" d="M 416 -1600 
Q 359 -1600 359 -1544 
Q 359 -1516 372 -1503 
Q 1466 -434 1466 1600 
Q 1466 3634 384 4691 
Q 359 4706 359 4744 
Q 359 4766 376 4783 
Q 394 4800 416 4800 
L 475 4800 
Q 494 4800 506 4788 
Q 966 4425 1272 3906 
Q 1578 3388 1720 2800 
Q 1863 2213 1863 1600 
Q 1863 1147 1786 708 
Q 1709 269 1542 -157 
Q 1375 -584 1119 -945 
Q 863 -1306 506 -1588 
Q 494 -1600 475 -1600 
L 416 -1600 
z
" transform="scale(0.015625)"/>
     </defs>
     <use xlink:href="#Cmr10-7b"/>
     <use xlink:href="#Cmr10-42" transform="translate(44.384766 0)"/>
     <use xlink:href="#Cmr10-52" transform="translate(94.384766 0)"/>
     <use xlink:href="#Cmr10-77" transform="translate(133.789062 0)"/>
     <use xlink:href="#Cmmi10-1d" transform="translate(172.607422 0)"/>
     <use xlink:href="#Cmmi10-30" transform="translate(234.814453 0)"/>
     <use xlink:href="#Cmr10-44" transform="translate(270.898438 0)"/>
    </g>
   </g>
   <g id="text_3">
    <!-- $A \cos(\omega t + \varphi)$ -->
    <g transform="translate(444.16 119.278125) scale(0.16 -0.16)">
     <defs>
      <path id="Cmmi10-5c" d="M 288 0 
Q 225 0 225 84 
Q 250 225 306 225 
Q 566 225 755 328 
Q 944 431 1081 647 
Q 1094 659 1094 659 
L 3378 4513 
Q 3428 4581 3500 4581 
L 3584 4581 
Q 3603 4581 3622 4573 
Q 3641 4566 3655 4548 
Q 3669 4531 3669 4513 
L 4056 378 
Q 4056 350 4084 294 
Q 4147 225 4563 225 
Q 4628 225 4628 141 
Q 4606 56 4592 28 
Q 4578 0 4519 0 
L 2919 0 
Q 2859 0 2859 84 
Q 2894 225 2944 225 
Q 3450 225 3481 397 
L 3384 1453 
L 1806 1453 
L 1294 594 
Q 1247 525 1247 434 
Q 1247 322 1355 273 
Q 1463 225 1594 225 
Q 1656 225 1656 141 
Q 1634 50 1621 25 
Q 1609 0 1550 0 
L 288 0 
z
M 1931 1678 
L 3359 1678 
L 3169 3750 
L 1931 1678 
z
" transform="scale(0.015625)"/>
      <path id="Cmr10-4c" d="M 481 1472 
Q 428 1472 393 1512 
Q 359 1553 359 1600 
Q 359 1647 393 1687 
Q 428 1728 481 1728 
L 2363 1728 
L 2363 3616 
Q 2363 3666 2400 3698 
Q 2438 3731 2491 3731 
Q 2538 3731 2578 3698 
Q 2619 3666 2619 3616 
L 2619 1728 
L 4500 1728 
Q 4547 1728 4581 1687 
Q 4616 1647 4616 1600 
Q 4616 1553 4581 1512 
Q 4547 1472 4500 1472 
L 2619 1472 
L 2619 -416 
Q 2619 -466 2578 -498 
Q 2538 -531 2491 -531 
Q 2438 -531 2400 -498 
Q 2363 -466 2363 -416 
L 2363 1472 
L 481 1472 
z
" transform="scale(0.015625)"/>
      <path id="Cmmi10-6" d="M 1044 -1216 
Q 1044 -1191 1056 -1141 
L 1416 -13 
Q 938 106 628 428 
Q 319 750 319 1216 
Q 319 1450 406 1744 
Q 494 2038 631 2302 
Q 769 2566 928 2741 
Q 966 2759 972 2759 
L 1050 2759 
Q 1069 2759 1084 2740 
Q 1100 2722 1100 2700 
Q 1100 2675 1088 2663 
Q 981 2547 879 2380 
Q 778 2213 698 2028 
Q 619 1844 566 1641 
Q 513 1438 513 1288 
Q 513 909 814 676 
Q 1116 444 1528 366 
L 1709 941 
Q 1828 1313 1945 1605 
Q 2063 1897 2239 2176 
Q 2416 2456 2666 2642 
Q 2916 2828 3225 2828 
Q 3469 2828 3633 2706 
Q 3797 2584 3876 2381 
Q 3956 2178 3956 1947 
Q 3956 1566 3787 1202 
Q 3619 838 3325 548 
Q 3031 259 2662 93 
Q 2294 -72 1919 -72 
Q 1869 -69 1811 -66 
Q 1753 -63 1716 -63 
L 1503 -1178 
Q 1484 -1272 1407 -1333 
Q 1331 -1394 1234 -1394 
Q 1156 -1394 1100 -1345 
Q 1044 -1297 1044 -1216 
z
M 1784 331 
Q 1856 325 1991 325 
Q 2388 325 2798 520 
Q 3209 716 3479 1056 
Q 3750 1397 3750 1797 
Q 3750 1978 3676 2122 
Q 3603 2266 3470 2348 
Q 3338 2431 3163 2431 
Q 2666 2431 2331 1950 
Q 1997 1469 1894 916 
L 1784 331 
z
" transform="scale(0.015625)"/>
     </defs>
     <use xlink:href="#Cmmi10-5c"/>
     <use xlink:href="#Cmr10-7b" transform="translate(75 0)"/>
     <use xlink:href="#Cmr10-42" transform="translate(119.384766 0)"/>
     <use xlink:href="#Cmr10-52" transform="translate(169.384766 0)"/>
     <use xlink:href="#Cmr10-77" transform="translate(208.789062 0)"/>
     <use xlink:href="#Cmmi10-1d" transform="translate(247.607422 0)"/>
     <use xlink:href="#Cmmi10-30" transform="translate(309.814453 0)"/>
     <use xlink:href="#Cmr10-4c" transform="translate(365.898495 0)"/>
     <use xlink:href="#Cmmi10-6" transform="translate(463.584099 0)"/>
     <use xlink:href="#Cmr10-44" transform="translate(528.964958 0)"/>
    </g>
   </g>
  </g>
  <g id="axes_2">
   <g id="line2d_1">
    <path d="M 28.8 57.6 
L 144 57.6 
" clip-path="url(#pf684a9d8f7)" style="fill: none; stroke: #cccccc; stroke-width: 1.5; stroke-linecap: square"/>
   </g>
   <g id="line2d_2">
    <path d="M 28.8 24.872727 
L 29.377444 25.0187 
L 29.954887 25.455318 
L 30.532331 26.178685 
L 31.398496 27.786589 
L 32.264662 29.992331 
L 33.130827 32.75168 
L 34.285714 37.194879 
L 35.729323 43.749398 
L 37.750376 54.127818 
L 41.215038 72.14708 
L 42.658647 78.603768 
L 43.813534 82.944439 
L 44.968421 86.382777 
L 45.834586 88.294398 
L 46.700752 89.590514 
L 47.278195 90.099285 
L 47.855639 90.318143 
L 48.433083 90.245136 
L 49.010526 89.880915 
L 49.58797 89.22873 
L 50.165414 88.294398 
L 51.031579 86.382777 
L 51.897744 83.893986 
L 53.052632 79.765579 
L 54.496241 73.515305 
L 56.228571 64.882503 
L 61.136842 39.699878 
L 62.580451 33.785223 
L 63.735338 29.992331 
L 64.601504 27.786589 
L 65.467669 26.178685 
L 66.045113 25.455318 
L 66.622556 25.0187 
L 67.2 24.872727 
L 67.777444 25.0187 
L 68.354887 25.455318 
L 68.932331 26.178685 
L 69.798496 27.786589 
L 70.664662 29.992331 
L 71.530827 32.75168 
L 72.685714 37.194879 
L 74.129323 43.749398 
L 76.150376 54.127818 
L 79.615038 72.14708 
L 81.058647 78.603768 
L 82.213534 82.944439 
L 83.368421 86.382777 
L 84.234586 88.294398 
L 85.100752 89.590514 
L 85.678195 90.099285 
L 86.255639 90.318143 
L 86.833083 90.245136 
L 87.410526 89.880915 
L 87.98797 89.22873 
L 88.565414 88.294398 
L 89.431579 86.382777 
L 90.297744 83.893986 
L 91.452632 79.765579 
L 92.896241 73.515305 
L 94.628571 64.882503 
L 99.536842 39.699878 
L 100.980451 33.785223 
L 102.135338 29.992331 
L 103.001504 27.786589 
L 103.867669 26.178685 
L 104.445113 25.455318 
L 105.022556 25.0187 
L 105.6 24.872727 
L 106.177444 25.0187 
L 106.754887 25.455318 
L 107.332331 26.178685 
L 108.198496 27.786589 
L 109.064662 29.992331 
L 109.930827 32.75168 
L 111.085714 37.194879 
L 112.529323 43.749398 
L 114.550376 54.127818 
L 118.015038 72.14708 
L 119.458647 78.603768 
L 120.613534 82.944439 
L 121.768421 86.382777 
L 122.634586 88.294398 
L 123.500752 89.590514 
L 124.078195 90.099285 
L 124.655639 90.318143 
L 125.233083 90.245136 
L 125.810526 89.880915 
L 126.38797 89.22873 
L 126.965414 88.294398 
L 127.831579 86.382777 
L 128.697744 83.893986 
L 129.852632 79.765579 
L 131.296241 73.515305 
L 133.028571 64.882503 
L 137.936842 39.699878 
L 139.380451 33.785223 
L 140.535338 29.992331 
L 141.401504 27.786589 
L 142.267669 26.178685 
L 142.845113 25.455318 
L 143.422556 25.0187 
L 144 24.872727 
L 144 24.872727 
" clip-path="url(#pf684a9d8f7)" style="fill: none; stroke: #1f77b4; stroke-width: 1.5; stroke-linecap: square"/>
   </g>
  </g>
  <g id="axes_3">
   <g id="line2d_3">
    <path d="M 432 57.6 
L 547.2 57.6 
" clip-path="url(#p93db35c4e6)" style="fill: none; stroke: #cccccc; stroke-width: 1.5; stroke-linecap: square"/>
   </g>
   <g id="line2d_4">
    <path d="M 432 24.872727 
L 432.577444 25.0187 
L 433.154887 25.455318 
L 433.732331 26.178685 
L 434.598496 27.786589 
L 435.464662 29.992331 
L 436.330827 32.75168 
L 437.485714 37.194879 
L 438.929323 43.749398 
L 440.950376 54.127818 
L 444.415038 72.14708 
L 445.858647 78.603768 
L 447.013534 82.944439 
L 448.168421 86.382777 
L 449.034586 88.294398 
L 449.900752 89.590514 
L 450.478195 90.099285 
L 451.055639 90.318143 
L 451.633083 90.245136 
L 452.210526 89.880915 
L 452.78797 89.22873 
L 453.365414 88.294398 
L 454.231579 86.382777 
L 455.097744 83.893986 
L 456.252632 79.765579 
L 457.696241 73.515305 
L 459.428571 64.882503 
L 464.336842 39.699878 
L 465.780451 33.785223 
L 466.935338 29.992331 
L 467.801504 27.786589 
L 468.667669 26.178685 
L 469.245113 25.455318 
L 469.822556 25.0187 
L 470.4 24.872727 
L 470.977444 25.0187 
L 471.554887 25.455318 
L 472.132331 26.178685 
L 472.998496 27.786589 
L 473.864662 29.992331 
L 474.730827 32.75168 
L 475.885714 37.194879 
L 477.329323 43.749398 
L 479.350376 54.127818 
L 482.815038 72.14708 
L 484.258647 78.603768 
L 485.413534 82.944439 
L 486.568421 86.382777 
L 487.434586 88.294398 
L 488.300752 89.590514 
L 488.878195 90.099285 
L 489.455639 90.318143 
L 490.033083 90.245136 
L 490.610526 89.880915 
L 491.18797 89.22873 
L 491.765414 88.294398 
L 492.631579 86.382777 
L 493.497744 83.893986 
L 494.652632 79.765579 
L 496.096241 73.515305 
L 497.828571 64.882503 
L 502.736842 39.699878 
L 504.180451 33.785223 
L 505.335338 29.992331 
L 506.201504 27.786589 
L 507.067669 26.178685 
L 507.645113 25.455318 
L 508.222556 25.0187 
L 508.8 24.872727 
L 509.377444 25.0187 
L 509.954887 25.455318 
L 510.532331 26.178685 
L 511.398496 27.786589 
L 512.264662 29.992331 
L 513.130827 32.75168 
L 514.285714 37.194879 
L 515.729323 43.749398 
L 517.750376 54.127818 
L 521.215038 72.14708 
L 522.658647 78.603768 
L 523.813534 82.944439 
L 524.968421 86.382777 
L 525.834586 88.294398 
L 526.700752 89.590514 
L 527.278195 90.099285 
L 527.855639 90.318143 
L 528.433083 90.245136 
L 529.010526 89.880915 
L 529.58797 89.22873 
L 530.165414 88.294398 
L 531.031579 86.382777 
L 531.897744 83.893986 
L 533.052632 79.765579 
L 534.496241 73.515305 
L 536.228571 64.882503 
L 541.136842 39.699878 
L 542.580451 33.785223 
L 543.735338 29.992331 
L 544.601504 27.786589 
L 545.467669 26.178685 
L 546.045113 25.455318 
L 546.622556 25.0187 
L 547.2 24.872727 
L 547.2 24.872727 
" clip-path="url(#p93db35c4e6)" style="fill: none; stroke: #cccccc; stroke-width: 1.5; stroke-linecap: square"/>
   </g>
   <g id="line2d_5">
    <path d="M 432 50.484611 
L 433.732331 45.650037 
L 435.17594 42.335474 
L 436.330827 40.286869 
L 437.196992 39.151741 
L 438.063158 38.386549 
L 438.640602 38.089834 
L 439.218045 37.967162 
L 439.795489 38.019626 
L 440.372932 38.246758 
L 441.239098 38.910106 
L 442.105263 39.948236 
L 442.971429 41.34033 
L 444.126316 43.697865 
L 445.569925 47.32925 
L 447.302256 52.41972 
L 452.78797 69.178612 
L 454.231579 72.568519 
L 455.386466 74.689471 
L 456.252632 75.884236 
L 457.118797 76.712355 
L 457.984962 77.15722 
L 458.562406 77.236149 
L 459.13985 77.139913 
L 459.717293 76.86937 
L 460.583459 76.142428 
L 461.449624 75.043661 
L 462.315789 73.595102 
L 463.470677 71.170714 
L 464.914286 67.472597 
L 466.646617 62.331478 
L 471.843609 46.3992 
L 473.287218 42.935838 
L 474.442105 40.743724 
L 475.308271 39.489988 
L 476.174436 38.599405 
L 477.040602 38.089834 
L 477.618045 37.967162 
L 478.195489 38.019626 
L 478.772932 38.246758 
L 479.639098 38.910106 
L 480.505263 39.948236 
L 481.371429 41.34033 
L 482.526316 43.697865 
L 483.969925 47.32925 
L 485.702256 52.41972 
L 491.18797 69.178612 
L 492.631579 72.568519 
L 493.786466 74.689471 
L 494.652632 75.884236 
L 495.518797 76.712355 
L 496.384962 77.15722 
L 496.962406 77.236149 
L 497.53985 77.139913 
L 498.117293 76.86937 
L 498.983459 76.142428 
L 499.849624 75.043661 
L 500.715789 73.595102 
L 501.870677 71.170714 
L 503.314286 67.472597 
L 505.046617 62.331478 
L 510.243609 46.3992 
L 511.687218 42.935838 
L 512.842105 40.743724 
L 513.708271 39.489988 
L 514.574436 38.599405 
L 515.440602 38.089834 
L 516.018045 37.967162 
L 516.595489 38.019626 
L 517.172932 38.246758 
L 518.039098 38.910106 
L 518.905263 39.948236 
L 519.771429 41.34033 
L 520.926316 43.697865 
L 522.369925 47.32925 
L 524.102256 52.41972 
L 529.58797 69.178612 
L 531.031579 72.568519 
L 532.186466 74.689471 
L 533.052632 75.884236 
L 533.918797 76.712355 
L 534.784962 77.15722 
L 535.362406 77.236149 
L 535.93985 77.139913 
L 536.517293 76.86937 
L 537.383459 76.142428 
L 538.249624 75.043661 
L 539.115789 73.595102 
L 540.270677 71.170714 
L 541.714286 67.472597 
L 543.446617 62.331478 
L 547.2 50.484611 
L 547.2 50.484611 
" clip-path="url(#p93db35c4e6)" style="fill: none; stroke: #1f77b4; stroke-width: 1.5; stroke-linecap: square"/>
   </g>
  </g>
 </g>
 <defs>
  <clipPath id="pdb0e91f0bd">
   <rect x="0" y="0" width="576" height="144"/>
  </clipPath>
  <clipPath id="pf684a9d8f7">
   <rect x="28.8" y="21.6" width="115.2" height="72"/>
  </clipPath>
  <clipPath id="p93db35c4e6">
   <rect x="432" y="21.6" width="115.2" height="72"/>
  </clipPath>
 </defs>
</svg>
